# xmcd CD database file
#
# Track frame offsets:
#	150
#	22741
#	47910
#	75157
#	100920
#	126330
#	145528
#	172470
#	198354
#	227867
#	254574
#	280064
#	311538
#	333429
#
# Disc length: 4686 seconds
#
# Revision: 11
# Processed by: cddbd v1.5.2PL0 Copyright (c) Steve Scherf et al.
# Submitted via: CDex 1.70beta2
#
DISCID=c0124c0e
DTITLE=Wolfgang Hohlbein - Anubis CD-01
DYEAR=2006
DGENRE=Hörbuch
TTITLE0=Anubis 01
TTITLE1=Anubis 02
TTITLE2=Anubis 03
TTITLE3=Anubis 04
TTITLE4=Anubis 05
TTITLE5=Anubis 06
TTITLE6=Anubis 07
TTITLE7=Anubis 08
TTITLE8=Anubis 09
TTITLE9=Anubis 10
TTITLE10=Anubis 11
TTITLE11=Anubis 12
TTITLE12=Anubis 13
TTITLE13=Anubis 14
EXTD=gelesen von David Nathan YEAR: 2006
EXTT0=
EXTT1=
EXTT2=
EXTT3=
EXTT4=
EXTT5=
EXTT6=
EXTT7=
EXTT8=
EXTT9=
EXTT10=
EXTT11=
EXTT12=
EXTT13=
PLAYORDER=
